<?xml version="1.0" encoding="UTF-8"?>
<svg width="15px" height="13px" viewBox="0 0 15 13" version="1.1" xmlns="http://www.w3.org/2000/svg" xmlns:xlink="http://www.w3.org/1999/xlink">
    <!-- Generator: Sketch 50.2 (55047) - http://www.bohemiancoding.com/sketch -->
    <title>Info-Icon</title>
    <desc>Created with Sketch.</desc>
    <defs></defs>
    <g id="Page-1" stroke="none" stroke-width="1" fill="none" fill-rule="evenodd">
        <g id="INSC0-ConfirmerContact" transform="translate(-527.000000, -256.000000)">
            <g id="ContactCard" transform="translate(231.000000, 110.000000)">
                <g id="Nom-prenom" transform="translate(41.000000, 124.000000)">
                    <g id="Info-tooltip" transform="translate(256.000000, 0.000000)">
                        <g id="Info-Icon" transform="translate(0.000000, 23.000000)">
                            <path d="M6.48169846,0.323076923 C3.07969846,0.323076923 0.323206154,2.55036923 0.323206154,5.28295385 C0.323206154,6.81433846 1.18840615,8.2236 2.68360615,9.1812 L2.77212923,9.23353846 L2.78634462,9.35501538 C2.84514462,9.73818462 2.50656,10.6848 1.97865231,11.2592308 C3.34268308,11.1196615 4.20917538,10.3643077 4.39979077,10.0858154 L4.48766769,9.98178462 L4.60462154,10.0160308 C5.20619077,10.1730462 5.83619077,10.2428308 6.46683692,10.2428308 C9.86883692,10.2428308 12.6401908,8.01489231 12.6401908,5.28295385 C12.6401908,2.55036923 9.88369846,0.323076923 6.48169846,0.323076923 Z" id="Stroke-3" stroke="#9047FB" stroke-linecap="round" stroke-linejoin="round"></path>
                            <polyline id="Stroke-5" stroke="#9047FB" stroke-width="0.9" stroke-linecap="round" stroke-linejoin="round" points="6.34038462 4.55532 6.66346154 4.55532 6.66346154 7.78608923 6.98653846 7.78608923"></polyline>
                            <path d="M7.21865541,2.59690155 C7.21865541,2.3166725 6.99119213,2.08920923 6.71096309,2.08920923 C6.43073404,2.08920923 6.20327077,2.3166725 6.20327077,2.59690155 C6.20327077,2.8771306 6.43073404,3.10459387 6.71096309,3.10459387 C6.99119213,3.10459387 7.21865541,2.8771306 7.21865541,2.59690155" id="Fill-7" fill="#9047FB"></path>
                        </g>
                    </g>
                </g>
            </g>
        </g>
    </g>
</svg>