<?xml version="1.0" encoding="UTF-8"?>
<svg width="189px" height="189px" viewBox="0 0 189 189" version="1.1" xmlns="http://www.w3.org/2000/svg" xmlns:xlink="http://www.w3.org/1999/xlink">
    <!-- Generator: Sketch 50.2 (55047) - http://www.bohemiancoding.com/sketch -->
    <title>WelcomeIllustraiton</title>
    <desc>Created with Sketch.</desc>
    <defs>
        <linearGradient x1="50%" y1="-11.4523848%" x2="50%" y2="110.977665%" id="linearGradient-1">
            <stop stop-color="#924FFF" stop-opacity="0.9" offset="0%"></stop>
            <stop stop-color="#FFFFFF" offset="100%"></stop>
        </linearGradient>
    </defs>
    <g id="Page-1" stroke="none" stroke-width="1" fill="none" fill-rule="evenodd">
        <g id="BIENVENUE" transform="translate(-525.000000, -287.000000)">
            <g id="WelcomeCard" transform="translate(231.000000, 110.000000)">
                <g id="WelcomeIllustraiton" transform="translate(294.000000, 177.000000)">
                    <circle id="Oval" fill="url(#linearGradient-1)" cx="94.0637969" cy="94.6545969" r="93.9499969"></circle>
                    <rect id="Rectangle" fill="#FFFFFF" x="136" y="102" width="30" height="27"></rect>
                    <path d="M10,134 L179,134" id="Stroke-105" stroke="#2A006B" stroke-width="1.6" stroke-linecap="round" stroke-linejoin="round"></path>
                    <path d="M170.2734,102.4485 L131.9754,102.7175 C131.0164,102.7245 130.2244,101.6585 130.2144,100.3495 L130.2104,99.7745 C130.2014,98.4655 130.9784,97.3885 131.9374,97.3825 L151.0234,88.2745 L170.2354,97.1135 C171.1944,97.1065 171.9864,98.1725 171.9954,99.4805 L172.0004,100.0565 C172.0094,101.3655 171.2324,102.4415 170.2734,102.4485 Z" id="Stroke-1" stroke="#2A006B" stroke-width="1.6" fill="#FFFFFF"></path>
                    <path d="M169.9551,134.5935 L132.9861,134.8525 C131.8811,134.8605 130.9791,133.9715 130.9721,132.8665 L130.9521,130.0245 C130.9441,128.9195 131.8331,128.0175 132.9371,128.0105 L169.9071,127.7505 C171.0121,127.7425 171.9131,128.6325 171.9211,129.7365 L171.9411,132.5795 C171.9491,133.6835 171.0591,134.5855 169.9551,134.5935 Z" id="Stroke-3" stroke="#2A006B" stroke-width="1.6" fill="#FFFFFF"></path>
                    <path d="M135.7017,103.0393 L135.8797,128.4553" id="Stroke-5" stroke="#2A006B" stroke-width="1.6"></path>
                    <path d="M140.3223,103.0071 L140.5013,128.4221" id="Stroke-7" stroke="#2A006B" stroke-width="1.6"></path>
                    <path d="M148.4092,102.9505 L148.5872,128.3655" id="Stroke-9" stroke="#2A006B" stroke-width="1.6"></path>
                    <path d="M153.0298,102.9177 L153.2088,128.3327" id="Stroke-11" stroke="#2A006B" stroke-width="1.6"></path>
                    <path d="M161.1167,102.8611 L161.2947,128.2761" id="Stroke-13" stroke="#2A006B" stroke-width="1.6"></path>
                    <path d="M165.7373,102.8289 L165.9163,128.2439" id="Stroke-15" stroke="#2A006B" stroke-width="1.6"></path>
                    <path d="M152.4561,96.2464 C152.5751,95.2054 151.8271,94.2664 150.7861,94.1474 C149.7451,94.0284 148.8051,94.7764 148.6871,95.8174 C148.5681,96.8584 149.3161,97.7984 150.3571,97.9164 C151.3981,98.0354 152.3381,97.2874 152.4561,96.2464" id="Fill-17" fill="#2A006B"></path>
                    <polyline id="Stroke-19" stroke="#2A006B" stroke-width="1.6" stroke-linecap="round" stroke-linejoin="round" points="134 65.3338 126.172 77.2208 115.276 70.0448"></polyline>
                    <path d="M126.0825,75.7063 C126.0825,53.0103 107.6845,34.6113 84.9885,34.6113 C62.2915,34.6113 43.8935,53.0103 43.8935,75.7063 C43.8935,82.6653 45.6235,89.2213 48.6765,94.9663 C55.5815,107.9563 69.2515,116.8003 84.9885,116.8003" id="Stroke-21" stroke="#2A006B" stroke-width="1.6" stroke-linecap="round" stroke-linejoin="round"></path>
                    <path d="M103.9746,70.0339 L104.0916,131.8749 C104.0916,133.0899 98.3796,134.8469 91.3816,134.8469 C84.3846,134.8469 78.4266,133.0889 78.4266,131.8729 L78.6336,69.8529" id="Stroke-31" stroke="#2A006B" stroke-width="1.6" fill="#FFFFFF"></path>
                    <path d="M104.0381,69.8533 C104.0381,71.9543 98.3511,73.6563 91.3361,73.6563 C84.3211,73.6563 78.6341,71.9543 78.6341,69.8533 C78.6341,67.7533 84.3211,66.0503 91.3361,66.0503 C98.3511,66.0503 104.0381,67.7533 104.0381,69.8533" id="Fill-33" fill="#FFFFFF"></path>
                    <path d="M104.0381,69.8533 C104.0381,71.9543 98.3511,73.6563 91.3361,73.6563 C84.3211,73.6563 78.6341,71.9543 78.6341,69.8533 C78.6341,67.7533 84.3211,66.0503 91.3361,66.0503 C98.3511,66.0503 104.0381,67.7533 104.0381,69.8533 Z" id="Stroke-35" stroke="#2A006B" stroke-width="1.6" fill="#FFFFFF"></path>
                    <path d="M103.9604,116.3733 C103.9604,118.4743 98.2734,120.1763 91.2584,120.1763 C84.2434,120.1763 78.5574,118.4743 78.5574,116.3733" id="Stroke-37" stroke="#2A006B" stroke-width="1.6"></path>
                    <path d="M104.0381,108.531 C104.0381,110.631 98.3511,112.334 91.3361,112.334 C84.3211,112.334 78.6341,110.631 78.6341,108.531" id="Stroke-39" stroke="#2A006B" stroke-width="1.6"></path>
                    <path d="M104.0913,100.9002 C104.0913,103.0002 98.4043,104.7032 91.3893,104.7032 C84.3743,104.7032 78.6873,103.0002 78.6873,100.9002" id="Stroke-41" stroke="#2A006B" stroke-width="1.6"></path>
                    <path d="M104.0913,92.6116 C104.0913,94.7126 98.4043,96.4146 91.3893,96.4146 C84.3743,96.4146 78.6873,94.7126 78.6873,92.6116" id="Stroke-43" stroke="#2A006B" stroke-width="1.6"></path>
                    <path d="M104.0913,85.3596 C104.0913,87.4596 98.4043,89.1626 91.3893,89.1626 C84.3743,89.1626 78.6873,87.4596 78.6873,85.3596" id="Stroke-45" stroke="#2A006B" stroke-width="1.6"></path>
                    <path d="M104.0913,78.1072 C104.0913,80.2082 98.4043,81.9102 91.3893,81.9102 C84.3743,81.9102 78.6873,80.2082 78.6873,78.1072" id="Stroke-47" stroke="#2A006B" stroke-width="1.6"></path>
                    <path d="M104.0381,123.6951 C104.0381,125.7951 98.3511,127.4981 91.3361,127.4981 C84.3211,127.4981 78.6341,125.7951 78.6341,123.6951" id="Stroke-49" stroke="#2A006B" stroke-width="1.6"></path>
                    <path d="M123.8867,110.7566 L123.9997,133.2326 C123.9997,134.4476 118.4617,136.2046 111.6767,136.2046 C104.8907,136.2046 99.1137,134.4456 99.1137,133.2306 L99.3147,110.5756" id="Stroke-53" stroke="#2A006B" stroke-width="1.6" fill="#FFFFFF"></path>
                    <path d="M123.9482,110.5759 C123.9482,112.6769 118.4342,114.3789 111.6322,114.3789 C104.8292,114.3789 99.3152,112.6769 99.3152,110.5759 C99.3152,108.4759 104.8292,106.7729 111.6322,106.7729 C118.4342,106.7729 123.9482,108.4759 123.9482,110.5759 Z" id="Stroke-57" stroke="#2A006B" stroke-width="1.6" fill="#FFFFFF"></path>
                    <path d="M123.8735,117.7307 C123.8735,119.8317 118.3595,121.5337 111.5575,121.5337 C104.7545,121.5337 99.2405,119.8317 99.2405,117.7307" id="Stroke-59" stroke="#2A006B" stroke-width="1.6"></path>
                    <path d="M123.9482,125.0525 C123.9482,127.1525 118.4342,128.8555 111.6322,128.8555 C104.8292,128.8555 99.3152,127.1525 99.3152,125.0525" id="Stroke-61" stroke="#2A006B" stroke-width="1.6"></path>
                    <path d="M84.8867,90.8953 L84.9997,130.6033 C84.9997,132.7513 79.4617,135.8563 72.6767,135.8563 C65.8907,135.8563 60.1137,132.7483 60.1137,130.6013 L60.3147,90.5763" id="Stroke-65" stroke="#2A006B" stroke-width="1.6" fill="#FFFFFF"></path>
                    <path d="M84.9482,90.5759 C84.9482,92.6769 79.4342,94.3789 72.6322,94.3789 C65.8292,94.3789 60.3152,92.6769 60.3152,90.5759 C60.3152,88.4759 65.8292,86.7729 72.6322,86.7729 C79.4342,86.7729 84.9482,88.4759 84.9482,90.5759 Z" id="Stroke-69" stroke="#2A006B" stroke-width="1.6" fill="#FFFFFF"></path>
                    <path d="M84.8735,97.7307 C84.8735,99.8317 79.3595,101.5337 72.5575,101.5337 C65.7545,101.5337 60.2405,99.8317 60.2405,97.7307" id="Stroke-71" stroke="#2A006B" stroke-width="1.6"></path>
                    <path d="M84.9482,105.0525 C84.9482,107.1525 79.4342,108.8555 72.6322,108.8555 C65.8292,108.8555 60.3152,107.1525 60.3152,105.0525" id="Stroke-73" stroke="#2A006B" stroke-width="1.6"></path>
                    <path d="M84.9482,112.0525 C84.9482,114.1525 79.4342,115.8555 72.6322,115.8555 C65.8292,115.8555 60.3152,114.1525 60.3152,112.0525" id="Stroke-75" stroke="#2A006B" stroke-width="1.6"></path>
                    <path d="M84.9482,119.0525 C84.9482,121.1525 79.4342,122.8555 72.6322,122.8555 C65.8292,122.8555 60.3152,121.1525 60.3152,119.0525" id="Stroke-77" stroke="#2A006B" stroke-width="1.6"></path>
                    <path d="M84.9482,125.0525 C84.9482,127.1525 79.4342,128.8555 72.6322,128.8555 C65.8292,128.8555 60.3152,127.1525 60.3152,125.0525" id="Stroke-79" stroke="#2A006B" stroke-width="1.6"></path>
                    <path d="M30,74.781 L30,132.856" id="Stroke-81" stroke="#2A006B" stroke-width="1.6" stroke-linecap="round" stroke-linejoin="round"></path>
                    <polygon id="Stroke-85" stroke="#2A006B" stroke-width="1.6" fill="#FFFFFF" stroke-linecap="round" stroke-linejoin="round" points="48.5132 80.447 9.5932 80.447 13.9592 86.113 9.5932 91.779 48.5132 91.779 55.0002 86.113"></polygon>
                    <path d="M42,43.8089 C42,43.8089 47.962,50.4009 54.122,43.8409 C60.281,37.2799 66.36,42.2319 66.36,42.2319 L66.36,51.9459 C66.36,51.9459 60.804,47.9089 54.18,54.5489 C48.581,60.1619 42,54.9749 42,54.9749 L42,43.8089 Z" id="Stroke-89" stroke="#2A006B" stroke-width="1.6" fill="#FFFFFF" stroke-linecap="round" stroke-linejoin="round"></path>
                    <path d="M55.7075,49.8557 C55.7935,49.1427 55.2855,48.4947 54.5725,48.4087 C53.8595,48.3217 53.2115,48.8307 53.1255,49.5437 C53.0395,50.2557 53.5475,50.9037 54.2605,50.9907 C54.9735,51.0767 55.6215,50.5687 55.7075,49.8557" id="Fill-91" fill="#2A006B"></path>
                    <path d="M59.6401,46.3289 C59.6401,46.3289 65.6021,52.9209 71.7621,46.3609 C77.9211,39.7999 84.0001,44.7519 84.0001,44.7519 L84.0001,54.4659 C84.0001,54.4659 78.4431,50.4289 71.8201,57.0679 C66.2201,62.6819 59.6401,57.4949 59.6401,57.4949 L59.6401,46.3289 Z" id="Stroke-95" stroke="#2A006B" stroke-width="1.6" fill="#FFFFFF" stroke-linecap="round" stroke-linejoin="round"></path>
                    <path d="M72.2122,50.9283 C71.4992,50.8423 70.8512,51.3503 70.7652,52.0633 C70.6792,52.7763 71.1872,53.4243 71.9002,53.5103 C72.6132,53.5963 73.2612,53.0883 73.3472,52.3753 C73.4332,51.6623 72.9252,51.0143 72.2122,50.9283 Z" id="Fill-97" fill="#2A006B"></path>
                    <path d="M59.6401,30.3689 C59.6401,30.3689 65.6021,36.9609 71.7621,30.3999 C77.9211,23.8399 84.0001,28.7919 84.0001,28.7919 L84.0001,38.5059 C84.0001,38.5059 78.4431,34.4689 71.8201,41.1079 C66.2201,46.7219 59.6401,41.5339 59.6401,41.5339 L59.6401,30.3689 Z" id="Stroke-101" stroke="#2A006B" stroke-width="1.6" fill="#FFFFFF" stroke-linecap="round" stroke-linejoin="round"></path>
                    <path d="M73.3472,36.4153 C73.4332,35.7023 72.9252,35.0543 72.2122,34.9683 C71.4992,34.8823 70.8512,35.3903 70.7652,36.1033 C70.6792,36.8163 71.1872,37.4643 71.9002,37.5503 C72.6132,37.6363 73.2612,37.1283 73.3472,36.4153" id="Fill-103" fill="#2A006B"></path>
                    <g id="Group" transform="translate(108.944065, 90.268791) rotate(58.000000) translate(-108.944065, -90.268791) translate(94.444065, 77.268791)" stroke="#2A006B" stroke-linecap="round" stroke-linejoin="round" stroke-width="1.6">
                        <path d="M16.5146,9.8372 L28.1616,0.3452" id="Stroke-23"></path>
                        <path d="M0.5283,13.7337 C-0.9027,18.7607 1.9683,23.9827 6.9413,25.3977 C11.9133,26.8127 17.1033,23.8837 18.5333,18.8577 C19.9643,13.8307 17.0933,8.6087 12.1213,7.1937 C7.1493,5.7787 1.9583,8.7067 0.5283,13.7337 Z" id="Stroke-25" fill="#FFFFFF"></path>
                        <path d="M8.0605,21.4627 C10.8835,22.2657 13.8305,20.6037 14.6425,17.7497" id="Stroke-27"></path>
                    </g>
                </g>
            </g>
        </g>
    </g>
</svg>