<?xml version="1.0" encoding="UTF-8"?>
<svg width="27px" height="25px" viewBox="0 0 27 25" version="1.1" xmlns="http://www.w3.org/2000/svg" xmlns:xlink="http://www.w3.org/1999/xlink">
    <!-- Generator: Sketch 50.2 (55047) - http://www.bohemiancoding.com/sketch -->
    <title>FileJPG-icon</title>
    <desc>Created with Sketch.</desc>
    <defs></defs>
    <g id="Page-1" stroke="none" stroke-width="1" fill="none" fill-rule="evenodd">
        <g id="INSC0-ConfirmerContact/Homonymie-validation" transform="translate(-273.000000, -475.000000)">
            <g id="Contact-Card" transform="translate(231.000000, 110.000000)">
                <g id="Identité" transform="translate(41.000000, 346.000000)">
                    <g id="FileJPG-icon" transform="translate(1.000000, 19.000000)">
                        <path d="M14.6026618,23.6596827 L1.6970765,23.6596827 C1.12638525,23.6596827 0.663196313,23.1716977 0.663196313,22.5698932 L0.663196313,1.74353233 C0.663196313,1.14172782 1.12638525,0.653742857 1.6970765,0.653742857 L11.0949014,0.653742857 L15.6365419,5.82926165 L15.6365419,22.5698932 C15.6365419,23.1716977 15.173353,23.6596827 14.6026618,23.6596827 Z" id="Stroke-3" stroke-opacity="0.8" stroke="#2A006B" stroke-linecap="round" stroke-linejoin="round"></path>
                        <polyline id="Stroke-5" stroke-opacity="0.8" stroke="#2A006B" stroke-linecap="round" stroke-linejoin="round" points="10.3895005 1.13492481 10.5288553 5.44698496 15.3478783 5.6863985"></polyline>
                        <path d="M22.4641327,19.6341338 L8.58040922,19.6341338 C6.24986544,19.6341338 4.36127558,17.7724647 4.36127558,15.4751414 L4.36127558,14.7686752 C4.36127558,12.4713519 6.24986544,10.6096827 8.58040922,10.6096827 L22.4641327,10.6096827 C24.7946765,10.6096827 26.6832664,12.4713519 26.6832664,14.7686752 L26.6832664,15.4751414 C26.6832664,17.7724647 24.7946765,19.6341338 22.4641327,19.6341338 Z" id="Stroke-9" fill="#924FFF"></path>
                        <text id="PDF" font-family="Montserrat-Bold, Montserrat" font-size="6.5" font-weight="bold" fill="#FFFFFF">
                            <tspan x="8.70967742" y="17.1428571">PD</tspan>
                            <tspan x="18.8366774" y="17.1428571" letter-spacing="0.200000003">F</tspan>
                        </text>
                    </g>
                </g>
            </g>
        </g>
    </g>
</svg>