<?xml version="1.0" encoding="UTF-8"?>
<svg width="37px" height="38px" viewBox="0 0 37 38" version="1.1" xmlns="http://www.w3.org/2000/svg" xmlns:xlink="http://www.w3.org/1999/xlink">
    <!-- Generator: Sketch 50.2 (55047) - http://www.bohemiancoding.com/sketch -->
    <title>verification-icon</title>
    <desc>Created with Sketch.</desc>
    <defs></defs>
    <g id="Page-1" stroke="none" stroke-width="1" fill="none" fill-rule="evenodd" stroke-linecap="round" stroke-linejoin="round">
        <g id="INSC0-ConfirmerContact/Homonymie-attente" transform="translate(-269.000000, -158.000000)" stroke="#924FFF" stroke-width="2.2">
            <g id="Contact-Card" transform="translate(231.000000, 110.000000)">
                <g id="verification-icon" transform="translate(40.000000, 50.000000)">
                    <path d="M31.8452055,31.3614914 L15.4592733,31.3614914 C14.6578443,31.3614914 14.0074016,30.663175 14.0074016,29.8015682 L14.0074016,1.55966064 C14.0074016,0.698578854 14.6578443,0.000262524936 15.4592733,0.000262524936 L26.9201263,0.000262524936 L33.2970772,7.40976631 L33.2970772,29.8015682 C33.2970772,30.663175 32.647157,31.3614914 31.8452055,31.3614914 Z" id="Stroke-3"></path>
                    <polyline id="Stroke-5" points="26.2784084 0.808576802 26.2784084 7.27771627 32.7154404 7.27771627"></polyline>
                    <path d="M11.5260018,25.2023938 L-0.000156733186,34.6422655" id="Stroke-7"></path>
                    <path d="M27.3462839,21.3275783 C28.7615845,16.3280534 25.9205343,11.1347851 21.0001572,9.72765148 C16.07978,8.32051782 10.9431111,11.2324444 9.52781039,16.2319693 C8.11250971,21.2309691 10.9535599,26.4247624 15.8739371,27.8318961 C20.7943142,29.2385047 25.9309832,26.3265781 27.3462839,21.3275783 Z" id="Stroke-11" fill="#FFFFFF"></path>
                    <path d="M19.8920013,13.6410582 C17.0984935,12.8424573 14.1827338,14.4953143 13.379215,17.3332089" id="Stroke-13"></path>
                </g>
            </g>
        </g>
    </g>
</svg>