<?xml version="1.0" encoding="iso-8859-1"?>
<!-- Generator: Adobe Illustrator 19.0.0, SVG Export Plug-In . SVG Version: 6.00 Build 0)  -->
<svg version="1.1" id="Capa_1" xmlns="http://www.w3.org/2000/svg" xmlns:xlink="http://www.w3.org/1999/xlink" x="0px" y="0px"
	 viewBox="0 0 512 512" style="enable-background:new 0 0 512 512;" xml:space="preserve">
<g>
	<path style="fill:#285680;" d="M494.345,79.448H17.655C7.916,79.477,0.028,87.364,0,97.103v317.793
		c0.029,9.739,7.916,17.627,17.655,17.655h476.69c9.739-0.029,17.627-7.916,17.655-17.655V97.103
		C511.972,87.364,504.084,79.477,494.345,79.448z"/>
	<path style="fill:#E6E7E8;" d="M379.586,79.448L26.483,432.552h-8.828C7.916,432.523,0.029,424.635,0,414.897v-8.828
		L326.621,79.448H379.586z"/>
	<polygon style="fill:#C03A2B;" points="494.345,79.448 141.241,432.552 26.483,432.552 379.586,79.448 	"/>
	<path style="fill:#E6E7E8;" d="M512,97.103v17.655L194.207,432.552h-52.966L494.345,79.448
		C504.084,79.477,511.972,87.364,512,97.103z"/>
	<path style="fill:#4C8056;" d="M512,114.759v300.138c-0.029,9.739-7.916,17.627-17.655,17.655H194.207L512,114.759z"/>
	<g>
		<circle style="fill:#F0C419;" cx="88.276" cy="167.724" r="26.483"/>
		<path style="fill:#F0C419;" d="M88.276,123.586c-2.952,0.028-5.72-1.436-7.358-3.892c-1.638-2.456-1.927-5.573-0.767-8.289
			c0.448-1.071,1.076-2.056,1.857-2.914c2.063-2.143,5.078-3.084,7.994-2.493s5.327,2.63,6.394,5.407
			c1.163,2.714,0.876,5.832-0.762,8.289C93.996,122.151,91.229,123.615,88.276,123.586z"/>
		<path style="fill:#F0C419;" d="M88.276,229.407c-2.952,0.028-5.72-1.436-7.358-3.892c-1.638-2.456-1.927-5.573-0.767-8.289
			c0.448-1.07,1.076-2.056,1.858-2.914c2.063-2.143,5.078-3.084,7.994-2.493c2.916,0.59,5.327,2.63,6.394,5.407
			c1.163,2.714,0.876,5.832-0.762,8.289C93.996,227.973,91.229,229.436,88.276,229.407z"/>
		<path style="fill:#F0C419;" d="M57.066,136.514c-2.068,2.107-5.06,3.029-7.955,2.45c-2.895-0.578-5.303-2.578-6.403-5.319
			c-0.44-1.074-0.693-2.215-0.747-3.374c0.193-4.813,4.05-8.67,8.863-8.863c1.161,0.034,2.305,0.288,3.371,0.75
			c2.741,1.097,4.743,3.505,5.323,6.4C60.096,131.455,59.174,134.447,57.066,136.514L57.066,136.514z"/>
		<path style="fill:#F0C419;" d="M131.892,211.341c-2.068,2.107-5.06,3.029-7.955,2.45c-2.895-0.578-5.303-2.578-6.403-5.318
			c-0.44-1.074-0.693-2.215-0.747-3.374c-0.057-2.974,1.41-5.771,3.89-7.415c2.479-1.644,5.627-1.907,8.345-0.698
			c2.741,1.097,4.743,3.505,5.323,6.4C134.923,206.281,134.001,209.273,131.892,211.341z"/>
		<path style="fill:#F0C419;" d="M44.138,167.724c0.028,2.952-1.436,5.72-3.892,7.358c-2.456,1.638-5.573,1.927-8.289,0.767
			c-1.071-0.448-2.056-1.076-2.914-1.857c-3.267-3.539-3.267-8.995,0-12.534c0.845-0.797,1.834-1.426,2.914-1.854
			c2.714-1.163,5.833-0.876,8.29,0.762S44.167,164.771,44.138,167.724z"/>
		<path style="fill:#F0C419;" d="M149.959,167.724c0.028,2.952-1.436,5.72-3.892,7.358c-2.456,1.638-5.573,1.927-8.289,0.767
			c-1.07-0.448-2.056-1.076-2.914-1.858c-2.143-2.063-3.084-5.078-2.493-7.994c0.59-2.916,2.63-5.327,5.407-6.394
			c2.714-1.163,5.832-0.876,8.289,0.762C148.524,162.004,149.988,164.771,149.959,167.724z"/>
		<path style="fill:#F0C419;" d="M57.066,198.934c2.107,2.068,3.029,5.06,2.45,7.955c-0.578,2.895-2.578,5.304-5.319,6.403
			c-1.074,0.44-2.215,0.693-3.374,0.747c-2.974,0.057-5.771-1.41-7.415-3.89c-1.644-2.479-1.907-5.627-0.698-8.345
			c1.097-2.741,3.505-4.743,6.4-5.323S54.998,196.826,57.066,198.934z"/>
		<path style="fill:#F0C419;" d="M131.892,124.108c2.107,2.068,3.029,5.06,2.45,7.955s-2.578,5.303-5.318,6.403
			c-1.074,0.44-2.215,0.693-3.374,0.747c-2.974,0.057-5.771-1.41-7.415-3.89c-1.644-2.479-1.907-5.627-0.698-8.345
			c1.097-2.741,3.505-4.743,6.4-5.323C126.833,121.077,129.825,121.999,131.892,124.108z"/>
	</g>
</g>
<g>
</g>
<g>
</g>
<g>
</g>
<g>
</g>
<g>
</g>
<g>
</g>
<g>
</g>
<g>
</g>
<g>
</g>
<g>
</g>
<g>
</g>
<g>
</g>
<g>
</g>
<g>
</g>
<g>
</g>
</svg>
