<?xml version="1.0" encoding="iso-8859-1"?>
<!-- Generator: Adobe Illustrator 19.0.0, SVG Export Plug-In . SVG Version: 6.00 Build 0)  -->
<svg version="1.1" id="Capa_1" xmlns="http://www.w3.org/2000/svg" xmlns:xlink="http://www.w3.org/1999/xlink" x="0px" y="0px"
	 viewBox="0 0 512 512" style="enable-background:new 0 0 512 512;" xml:space="preserve">
<g>
	<path style="fill:#C03A2B;" d="M397.241,432.552h97.103c9.751,0,17.655-7.905,17.655-17.655V97.103
		c0-9.751-7.905-17.655-17.655-17.655H17.655C7.904,79.448,0,87.353,0,97.103v317.793c0,9.751,7.904,17.655,17.655,17.655H397.241z"
		/>
	<path style="fill:#4FBA6F;" d="M320.618,361.931h94.279c4.869-0.014,8.813-3.958,8.828-8.828V158.897
		c-0.014-4.869-3.958-8.813-8.828-8.828H97.103c-4.869,0.014-8.813,3.958-8.828,8.828v194.207c0.014,4.869,3.958,8.813,8.828,8.828
		H320.618z"/>
	<path style="fill:#FFFFFF;" d="M291.31,323.09c-29.121,9.572-61.092-0.736-79.138-25.515c-18.046-24.779-18.046-58.37,0-83.149
		s50.016-35.087,79.138-25.515c-28.972,9.534-48.551,36.589-48.551,67.09S262.338,313.556,291.31,323.09z"/>
</g>
<g>
</g>
<g>
</g>
<g>
</g>
<g>
</g>
<g>
</g>
<g>
</g>
<g>
</g>
<g>
</g>
<g>
</g>
<g>
</g>
<g>
</g>
<g>
</g>
<g>
</g>
<g>
</g>
<g>
</g>
</svg>
