<?xml version="1.0" encoding="iso-8859-1"?>
<!-- Generator: Adobe Illustrator 19.0.0, SVG Export Plug-In . SVG Version: 6.00 Build 0)  -->
<svg version="1.1" id="Capa_1" xmlns="http://www.w3.org/2000/svg" xmlns:xlink="http://www.w3.org/1999/xlink" x="0px" y="0px"
	 viewBox="0 0 512 512" style="enable-background:new 0 0 512 512;" xml:space="preserve">
<g>
	<path style="fill:#E6E7E8;" d="M512,114.759l-134.091,89.423c14.006,33.126,14.006,70.51,0,103.636L512,397.241v17.655
		c-0.024,8.675-6.348,16.047-14.919,17.39h-0.088c-0.871,0.18-1.759,0.269-2.648,0.265H476.69l-126.058-84.039
		c-24.875,25.513-58.999,39.901-94.631,39.901s-69.756-14.388-94.631-39.901L35.31,432.552H17.655
		c-0.89,0.004-1.777-0.085-2.648-0.265h-0.088C6.348,430.944,0.024,423.572,0,414.896v-17.655l134.091-89.423
		c-14.006-33.126-14.006-70.51,0-103.636L0,114.759V97.103c0.023-9.741,7.914-17.632,17.655-17.655H35.31l126.058,84.039
		c24.876-25.513,58.999-39.9,94.631-39.9s69.756,14.388,94.631,39.9L476.69,79.448h17.655c9.741,0.023,17.632,7.914,17.655,17.655
		V114.759z"/>
	<path style="fill:#4C8056;" d="M123.586,256c-0.032,17.805,3.542,35.431,10.505,51.818L0,397.241V114.759l134.091,89.423
		C127.128,220.569,123.555,238.195,123.586,256z"/>
	<g>
		<path style="fill:#C03A2B;" d="M476.69,432.552H35.31l126.058-84.039c24.875,25.513,58.999,39.901,94.631,39.901
			s69.756-14.388,94.631-39.901L476.69,432.552z"/>
		<path style="fill:#C03A2B;" d="M476.69,79.448l-126.058,84.039c-24.876-25.513-58.999-39.9-94.631-39.9
			c-35.633,0-69.756,14.388-94.631,39.9L35.31,79.448H476.69z"/>
	</g>
	<path style="fill:#4C8056;" d="M512,114.759v282.483l-134.091-89.423c14.006-33.126,14.006-70.51,0-103.636L512,114.759z"/>
	<g>
		<polygon style="fill:#C03A2B;" points="276.392,205.683 291.31,224.662 266.152,222.19 256,243.73 245.848,222.19 220.69,224.662 
			235.608,205.683 220.69,186.703 245.848,189.263 256,167.724 266.152,189.263 291.31,186.703 		"/>
		<polygon style="fill:#C03A2B;" points="223.426,288.662 238.345,307.641 213.186,305.081 203.034,326.621 192.883,305.081 
			167.724,307.641 182.643,288.662 167.724,269.683 192.883,272.154 203.034,250.615 213.186,272.154 238.345,269.683 		"/>
		<polygon style="fill:#C03A2B;" points="329.357,288.662 344.276,307.641 319.117,305.081 308.966,326.621 298.814,305.081 
			273.655,307.641 288.574,288.662 273.655,269.683 298.814,272.154 308.966,250.615 319.117,272.154 344.276,269.683 		"/>
	</g>
</g>
<g>
</g>
<g>
</g>
<g>
</g>
<g>
</g>
<g>
</g>
<g>
</g>
<g>
</g>
<g>
</g>
<g>
</g>
<g>
</g>
<g>
</g>
<g>
</g>
<g>
</g>
<g>
</g>
<g>
</g>
</svg>
