<?xml version="1.0" encoding="iso-8859-1"?>
<!-- Generator: Adobe Illustrator 19.0.0, SVG Export Plug-In . SVG Version: 6.00 Build 0)  -->
<svg version="1.1" id="Capa_1" xmlns="http://www.w3.org/2000/svg" xmlns:xlink="http://www.w3.org/1999/xlink" x="0px" y="0px"
	 viewBox="0 0 512 512" style="enable-background:new 0 0 512 512;" xml:space="preserve">
<g>
	<path style="fill:#E6E7E8;" d="M512,97.103v317.793c-0.029,9.739-7.916,17.627-17.655,17.655H256V79.448h238.345
		C504.084,79.477,511.972,87.365,512,97.103z"/>
	<path style="fill:#4C8056;" d="M256,79.448v353.103H17.655C7.916,432.523,0.029,424.635,0,414.897V97.103
		c0.028-9.739,7.916-17.627,17.655-17.655H256z"/>
	<g>
		<polygon style="fill:#C03A2B;" points="298.487,213.372 323.028,221.696 343.799,206.195 343.473,232.113 364.623,247.075 
			339.88,254.764 332.191,279.517 317.219,258.357 291.31,258.684 306.812,237.912 		"/>
		<path style="fill:#C03A2B;" d="M264.828,326.621c20.808,0,40.782-8.18,55.614-22.775c-25.725,45.296-78.733,67.584-129.097,54.28
			c-50.364-13.304-85.45-58.861-85.45-110.953s35.086-97.649,85.45-110.953s103.371,8.984,129.097,54.28
			c-25.595-25.116-64.844-29.969-95.785-11.841s-45.898,54.738-36.503,89.345C197.55,302.61,228.968,326.629,264.828,326.621z"/>
	</g>
</g>
<g>
</g>
<g>
</g>
<g>
</g>
<g>
</g>
<g>
</g>
<g>
</g>
<g>
</g>
<g>
</g>
<g>
</g>
<g>
</g>
<g>
</g>
<g>
</g>
<g>
</g>
<g>
</g>
<g>
</g>
</svg>
