<?xml version="1.0" encoding="iso-8859-1"?>
<!-- Generator: Adobe Illustrator 19.0.0, SVG Export Plug-In . SVG Version: 6.00 Build 0)  -->
<svg version="1.1" id="Capa_1" xmlns="http://www.w3.org/2000/svg" xmlns:xlink="http://www.w3.org/1999/xlink" x="0px" y="0px"
	 viewBox="0 0 512.001 512.001" style="enable-background:new 0 0 512.001 512.001;" xml:space="preserve">
<g>
	<polygon style="fill:#E6E7E8;" points="355.929,300.138 262.268,432.552 249.733,432.552 156.072,300.138 	"/>
	<polygon style="fill:#3B97D3;" points="399.625,238.345 355.929,300.138 156.072,300.138 112.375,238.345 	"/>
	<g>
		<path style="fill:#C03A2B;" d="M512,97.104v317.793c-0.029,9.739-7.916,17.627-17.655,17.655H262.268L507.675,85.628
			C510.484,88.788,512.025,92.876,512,97.104z"/>
		<path style="fill:#C03A2B;" d="M249.733,432.552H17.655C7.917,432.523,0.029,424.636,0,414.897V97.104
			c-0.025-4.228,1.516-8.316,4.326-11.476l108.05,152.717l43.697,61.793L249.733,432.552z"/>
	</g>
	<path style="fill:#2C2F38;" d="M494.345,79.449H17.655c-5.137-0.008-10.016,2.253-13.33,6.179l108.05,152.717h287.25
		l108.05-152.717C504.361,81.702,499.483,79.44,494.345,79.449z"/>
	<polygon style="fill:#F3D55B;" points="379.586,205.86 338.803,238.345 173.198,238.345 132.414,205.86 197.562,203.564 
		179.642,139.653 233.666,176.817 256,114.406 278.334,176.817 332.359,139.653 314.439,203.564 	"/>
</g>
<g>
</g>
<g>
</g>
<g>
</g>
<g>
</g>
<g>
</g>
<g>
</g>
<g>
</g>
<g>
</g>
<g>
</g>
<g>
</g>
<g>
</g>
<g>
</g>
<g>
</g>
<g>
</g>
<g>
</g>
</svg>
