<?xml version="1.0" encoding="iso-8859-1"?>
<!-- Generator: Adobe Illustrator 19.0.0, SVG Export Plug-In . SVG Version: 6.00 Build 0)  -->
<svg version="1.1" id="Capa_1" xmlns="http://www.w3.org/2000/svg" xmlns:xlink="http://www.w3.org/1999/xlink" x="0px" y="0px"
	 viewBox="0 0 512 512" style="enable-background:new 0 0 512 512;" xml:space="preserve">
<g>
	<g>
		<path style="fill:#285680;" d="M194.207,79.449V220.69H0L0,97.104c-0.015-2.02,0.344-4.025,1.059-5.914
			c2.19-6.218,7.679-10.684,14.212-11.564c0.791-0.102,1.586-0.161,2.383-0.177H194.207z"/>
		<path style="fill:#285680;" d="M194.207,79.449V220.69H0V97.104c0.028-9.739,7.916-17.627,17.655-17.655H194.207z"/>
		<path style="fill:#285680;" d="M512,97.104v317.793c-0.029,9.739-7.916,17.626-17.655,17.655H17.656
			C7.917,432.523,0.029,424.636,0,414.897V220.69h194.207V79.449h300.138C504.084,79.477,511.972,87.365,512,97.104z"/>
	</g>
	<g>
		<path style="fill:#ECF0F1;" d="M194.207,198.886v21.804h-30.014L0,101.253v-4.149c0.028-9.739,7.916-17.627,17.655-17.655h12.359
			L194.207,198.886z"/>
		<polygon style="fill:#ECF0F1;" points="194.207,79.449 194.207,101.253 127.118,150.069 97.104,171.873 30.014,220.69 0,220.69 
			0,198.886 67.09,150.069 97.104,128.265 164.194,79.449 		"/>
		<polygon style="fill:#ECF0F1;" points="194.207,132.414 194.207,167.724 114.759,167.724 114.759,220.69 79.449,220.69 
			79.449,167.724 0,167.724 0,132.414 79.449,132.414 79.449,79.449 114.759,79.449 114.759,132.414 		"/>
	</g>
	<g>
		<path style="fill:#C03A2B;" d="M194.207,209.744v10.946H179.2l-63.029-45.815c-0.533-0.37-1.009-0.816-1.412-1.324v-5.826h21.628
			L194.207,209.744z"/>
		<path style="fill:#C03A2B;" d="M79.449,126.588v5.826H57.821L3.885,93.22l-2.825-2.03c2.19-6.218,7.679-10.684,14.212-11.564
			l1.324,0.883l61.44,44.756C78.569,125.634,79.045,126.08,79.449,126.588z"/>
		<path style="fill:#C03A2B;" d="M79.449,167.724v5.826c-0.404,0.508-0.88,0.954-1.412,1.324L15.007,220.69H0v-10.946l57.821-42.019
			H79.449z"/>
		<path style="fill:#C03A2B;" d="M194.207,79.449v10.946l-57.821,42.019h-21.628v-5.826c0.403-0.508,0.879-0.954,1.412-1.324
			L179.2,79.449H194.207z"/>
		<rect x="0" y="141.242" style="fill:#C03A2B;" width="194.207" height="17.655"/>
		<rect x="88.276" y="79.449" style="fill:#C03A2B;" width="17.655" height="141.241"/>
	</g>
	<g>
		<polygon style="fill:#ECF0F1;" points="362.841,150.069 368.579,161.695 381.405,163.558 372.119,172.606 374.317,185.38 
			362.841,179.35 351.365,185.38 353.554,172.606 344.276,163.558 357.103,161.695 		"/>
		<polygon style="fill:#ECF0F1;" points="362.841,326.621 368.579,338.247 381.405,340.109 372.119,349.158 374.317,361.931 
			362.841,355.902 351.365,361.931 353.554,349.158 344.276,340.109 357.103,338.247 		"/>
		<polygon style="fill:#ECF0F1;" points="309.875,164.264 320.654,171.458 332.695,166.656 329.181,179.138 337.461,189.105 
			324.511,189.617 317.591,200.581 313.106,188.416 300.544,185.221 310.723,177.196 		"/>
		<polygon style="fill:#ECF0F1;" points="398.151,317.158 408.93,324.361 420.97,319.559 417.457,332.032 425.737,341.999 
			412.787,342.519 405.866,353.474 401.382,341.319 388.82,338.123 398.999,330.09 		"/>
		<polygon style="fill:#ECF0F1;" points="271.104,203.035 284.037,203.882 292.061,193.704 295.257,206.266 307.421,210.75 
			296.457,217.671 295.945,230.63 285.979,222.341 273.497,225.854 278.299,213.813 		"/>
		<polygon style="fill:#ECF0F1;" points="423.998,291.311 436.931,292.158 444.964,281.98 448.159,294.541 460.315,299.026 
			449.351,305.947 448.839,318.906 438.873,310.617 426.399,314.13 431.202,302.089 		"/>
		<polygon style="fill:#ECF0F1;" points="256.91,256 268.536,250.262 270.398,237.436 279.447,246.722 292.22,244.524 286.191,256 
			292.22,267.476 279.447,265.278 270.398,274.565 268.536,261.738 		"/>
		<polygon style="fill:#ECF0F1;" points="433.461,256 445.087,250.262 446.95,237.436 455.998,246.722 468.772,244.524 462.743,256 
			468.772,267.476 455.998,265.278 446.95,274.565 445.087,261.738 		"/>
		<polygon style="fill:#ECF0F1;" points="271.104,308.966 278.299,298.187 273.497,286.146 285.979,289.66 295.945,281.371 
			296.457,294.33 307.421,301.25 295.257,305.735 292.061,318.297 284.037,308.118 		"/>
		<polygon style="fill:#ECF0F1;" points="423.998,220.69 431.202,209.911 426.399,197.871 438.873,201.384 448.839,193.095 
			449.351,206.054 460.315,212.975 448.159,217.459 444.964,230.021 436.931,219.842 		"/>
		<polygon style="fill:#ECF0F1;" points="309.875,347.737 310.723,334.804 300.544,326.78 313.106,323.584 317.591,311.42 
			324.511,322.384 337.461,322.896 329.181,332.862 332.695,345.344 320.654,340.542 		"/>
		<polygon style="fill:#ECF0F1;" points="398.151,194.843 398.999,181.91 388.82,173.877 401.382,170.682 405.866,158.526 
			412.787,169.481 425.737,170.002 417.457,179.968 420.97,192.442 408.93,187.639 		"/>
	</g>
</g>
<g>
</g>
<g>
</g>
<g>
</g>
<g>
</g>
<g>
</g>
<g>
</g>
<g>
</g>
<g>
</g>
<g>
</g>
<g>
</g>
<g>
</g>
<g>
</g>
<g>
</g>
<g>
</g>
<g>
</g>
</svg>
