<?xml version="1.0" encoding="iso-8859-1"?>
<!-- Generator: Adobe Illustrator 19.0.0, SVG Export Plug-In . SVG Version: 6.00 Build 0)  -->
<svg version="1.1" id="Capa_1" xmlns="http://www.w3.org/2000/svg" xmlns:xlink="http://www.w3.org/1999/xlink" x="0px" y="0px"
	 viewBox="0 0 512 512" style="enable-background:new 0 0 512 512;" xml:space="preserve">
<g>
	<g>
		<path style="fill:#285680;" d="M194.207,79.449V220.69H0L0,97.104c-0.015-2.02,0.344-4.025,1.059-5.914
			c2.19-6.218,7.679-10.684,14.212-11.564c0.791-0.102,1.586-0.161,2.383-0.177H194.207z"/>
		<path style="fill:#285680;" d="M194.207,79.449V220.69H0V97.104c0.028-9.739,7.916-17.627,17.655-17.655H194.207z"/>
		<path style="fill:#285680;" d="M512,97.104v317.793c-0.029,9.739-7.916,17.626-17.655,17.655H17.656
			C7.917,432.523,0.029,424.636,0,414.897V220.69h194.207V79.449h300.138C504.084,79.477,511.972,87.365,512,97.104z"/>
	</g>
	<g>
		<path style="fill:#ECF0F1;" d="M194.207,198.886v21.804h-30.014L0,101.253v-4.149c0.028-9.739,7.916-17.627,17.655-17.655h12.359
			L194.207,198.886z"/>
		<polygon style="fill:#ECF0F1;" points="194.207,79.449 194.207,101.253 127.118,150.069 97.104,171.873 30.014,220.69 0,220.69 
			0,198.886 67.09,150.069 97.104,128.265 164.194,79.449 		"/>
		<polygon style="fill:#ECF0F1;" points="194.207,132.414 194.207,167.724 114.759,167.724 114.759,220.69 79.449,220.69 
			79.449,167.724 0,167.724 0,132.414 79.449,132.414 79.449,79.449 114.759,79.449 114.759,132.414 		"/>
	</g>
	<g>
		<path style="fill:#C03A2B;" d="M194.207,209.744v10.946H179.2l-63.029-45.815c-0.533-0.37-1.009-0.816-1.412-1.324v-5.826h21.628
			L194.207,209.744z"/>
		<path style="fill:#C03A2B;" d="M79.449,126.588v5.826H57.821L3.885,93.22l-2.825-2.03c2.19-6.218,7.679-10.684,14.212-11.564
			l1.324,0.883l61.44,44.756C78.569,125.634,79.045,126.08,79.449,126.588z"/>
		<path style="fill:#C03A2B;" d="M79.449,167.724v5.826c-0.404,0.508-0.88,0.954-1.412,1.324L15.007,220.69H0v-10.946l57.821-42.019
			H79.449z"/>
		<path style="fill:#C03A2B;" d="M194.207,79.449v10.946l-57.821,42.019h-21.628v-5.826c0.403-0.508,0.879-0.954,1.412-1.324
			L179.2,79.449H194.207z"/>
	</g>
	<g>
		<polygon style="fill:#ECF0F1;" points="104.572,256 116.657,286.623 148.136,276.983 131.735,305.523 158.897,324.123 
			126.35,329.093 128.751,361.931 104.572,339.589 80.393,361.931 82.786,329.093 50.238,324.123 77.41,305.523 60.999,276.983 
			92.478,286.623 		"/>
		<polygon style="fill:#ECF0F1;" points="392.828,97.104 399.705,114.521 417.607,109.039 408.276,125.273 423.725,135.848 
			405.213,138.673 406.581,157.343 392.828,144.64 379.075,157.343 380.443,138.673 361.931,135.848 377.38,125.273 
			368.049,109.039 385.951,114.521 		"/>
		<polygon style="fill:#ECF0F1;" points="348.69,167.724 355.567,185.141 373.469,179.659 364.138,195.893 379.587,206.469 
			361.075,209.293 362.443,227.964 348.69,215.261 334.937,227.964 336.305,209.293 317.794,206.469 333.242,195.893 
			323.911,179.659 341.813,185.141 		"/>
		<polygon style="fill:#ECF0F1;" points="454.621,151.623 461.498,169.031 479.4,163.549 470.069,179.783 485.518,190.358 
			467.006,193.192 468.375,211.862 454.621,199.159 440.868,211.862 442.236,193.192 423.725,190.358 439.173,179.783 
			429.842,163.549 447.744,169.031 		"/>
		<polygon style="fill:#ECF0F1;" points="384,284.037 390.877,301.445 408.779,295.963 399.449,312.197 414.897,322.772 
			396.386,325.606 397.754,344.276 384,331.573 370.247,344.276 371.615,325.606 353.104,322.772 368.552,312.197 359.221,295.963 
			377.124,301.445 		"/>
	</g>
	<g>
		<rect x="0" y="141.242" style="fill:#C03A2B;" width="194.207" height="17.655"/>
		<rect x="88.276" y="79.449" style="fill:#C03A2B;" width="17.655" height="141.241"/>
	</g>
	<polygon style="fill:#ECF0F1;" points="440.02,229.517 445.749,241.143 458.585,243.006 449.298,252.054 451.487,264.828 
		440.02,258.799 428.544,264.828 430.734,252.054 421.456,243.006 434.282,241.143 	"/>
</g>
<g>
</g>
<g>
</g>
<g>
</g>
<g>
</g>
<g>
</g>
<g>
</g>
<g>
</g>
<g>
</g>
<g>
</g>
<g>
</g>
<g>
</g>
<g>
</g>
<g>
</g>
<g>
</g>
<g>
</g>
</svg>
